<svg xmlns="http://www.w3.org/2000/svg" version="1.1" x="0" y="0" viewBox="0 0 252.1 165.3" xml:space="preserve"><style type="text/css">
.st0{fill:#3E2723;}
.st1{fill:#EF4323;}
</style><path class="st0" d="M0 0h43l14 53.9 4.6 21.4h0.8l4.6-21.4L80.1 0h43v165.3H88v-38.9c0-4.9 0.2-11.1 0.6-18.7s0.9-15.3 1.4-23.4 1.1-15.8 1.8-23.3c0.7-7.5 1.3-13.6 1.8-18.6h-0.8L79.1 91.5l-8.6 29.7H51.6L43 91.5 30 42.5h-1c0.5 4.9 1.1 11.1 1.8 18.6 0.7 7.5 1.3 15.2 1.8 23.3s1 15.8 1.4 23.4 0.6 13.8 0.6 18.7v38.9H0V0z"/><path class="st1" d="M129.1 0h43l14 53.9 4.6 21.4h0.8l4.6-21.4L209.2 0h43v165.3H217v-38.9c0-4.9 0.2-11.1 0.6-18.7s0.9-15.3 1.4-23.4 1.1-15.8 1.8-23.3c0.7-7.5 1.3-13.6 1.8-18.6h-0.8l-13.7 49.1 -8.6 29.7h-18.8L172 91.5l-13-49.1h-1c0.5 4.9 1.1 11.1 1.8 18.6 0.7 7.5 1.3 15.2 1.8 23.3s1 15.8 1.4 23.4 0.6 13.8 0.6 18.7v38.9h-34.6V0z"/></svg>